<svg width="355" height="259" viewBox="0 0 355 259" fill="none" xmlns="http://www.w3.org/2000/svg">
<path d="M198 64L305 194" stroke="black"/>
<path d="M141 70L48 194" stroke="black"/>
<circle cx="315" cy="219" r="40" fill="#FF4500"/>
<circle cx="40" cy="219" r="40" fill="#FF4500"/>
<circle cx="165" cy="40" r="40" fill="#FF4500"/>
<path d="M78.0879 110.542C78.0879 112.446 77.7627 113.861 77.1123 114.787C76.4619 115.713 75.4453 116.176 74.0625 116.176C72.6973 116.176 71.6865 115.725 71.0303 114.822C70.374 113.914 70.0342 112.561 70.0107 110.762V108.591C70.0107 106.71 70.3359 105.312 70.9863 104.398C71.6367 103.484 72.6562 103.027 74.0449 103.027C75.4219 103.027 76.4355 103.47 77.0859 104.354C77.7363 105.233 78.0703 106.593 78.0879 108.433V110.542ZM76.4619 108.318C76.4619 106.941 76.2686 105.939 75.8818 105.312C75.4951 104.68 74.8828 104.363 74.0449 104.363C73.2129 104.363 72.6064 104.677 72.2256 105.304C71.8447 105.931 71.6484 106.895 71.6367 108.195V110.797C71.6367 112.18 71.8359 113.202 72.2344 113.864C72.6387 114.521 73.248 114.849 74.0625 114.849C74.8652 114.849 75.46 114.538 75.8467 113.917C76.2393 113.296 76.4443 112.317 76.4619 110.981V108.318Z" fill="black"/>
<path d="M270.407 116H268.772V105.163L265.494 106.367V104.891L270.152 103.142H270.407V116Z" fill="black"/>
</svg>
